<?xml version="1.0" encoding="utf-8"?>
<svg width="1024" height="1024" viewBox="0 0 24 24" fill="none" xmlns="http://www.w3.org/2000/svg">
  <style>
    :root {
      --app-background: #f7f7f5;
      --app-border: rgb(0 0 0 / 0.08);
      --mark-fill: rgb(1 6 64);
      --symbol-cutout: #f7f7f5;
    }

    @supports (color: color(display-p3 1 1 1)) {
      :root {
        --mark-fill: color(display-p3 0.00490 0.02248 0.24917 / 1);
      }
    }

    @media (prefers-color-scheme: dark) {
      :root {
        --app-background: #191919;
        --app-border: rgb(255 255 255 / 0.14);
        --mark-fill: rgb(170 171 210);
        --symbol-cutout: #191919;
      }

      @supports (color: color(display-p3 1 1 1)) {
        :root {
          --mark-fill: color(display-p3 0.66562 0.67060 0.82465 / 1);
        }
      }
    }

    .app-background {
      fill: var(--app-background);
      stroke: var(--app-border);
      stroke-width: 0.12;
    }

    .mark {
      fill: var(--mark-fill);
    }

    .symbol-cutout {
      fill: var(--symbol-cutout);
    }
  </style>

  <defs>
    <path id="trendSymbol" d="M13.75 10C13.75 10.4142 14.0858 10.75 14.5 10.75H15.1893L13.1768 12.7626C13.0791 12.8602 12.9209 12.8602 12.8232 12.7626L11.2374 11.1768C10.554 10.4934 9.44598 10.4934 8.76256 11.1768L6.46967 13.4697C6.17678 13.7626 6.17678 14.2374 6.46967 14.5303C6.76256 14.8232 7.23744 14.8232 7.53033 14.5303L9.82322 12.2374C9.92085 12.1398 10.0791 12.1398 10.1768 12.2374L11.7626 13.8232C12.446 14.5066 13.554 14.5066 14.2374 13.8232L16.25 11.8107V12.5C16.25 12.9142 16.5858 13.25 17 13.25C17.4142 13.25 17.75 12.9142 17.75 12.5V10C17.75 9.58579 17.4142 9.25 17 9.25H14.5C14.0858 9.25 13.75 9.58579 13.75 10Z"/>
  </defs>

  <rect class="app-background" x="0.5" y="0.5" width="23" height="23" rx="5.4"/>

  <g transform="translate(2.88 2.88) scale(0.76)">
    <path class="mark" fill-rule="evenodd" clip-rule="evenodd" d="M3.46447 3.46447C2 4.92893 2 7.28595 2 12C2 16.714 2 19.0711 3.46447 20.5355C4.92893 22 7.28595 22 12 22C16.714 22 19.0711 22 20.5355 20.5355C22 19.0711 22 16.714 22 12C22 7.28595 22 4.92893 20.5355 3.46447C19.0711 2 16.714 2 12 2C7.28595 2 4.92893 2 3.46447 3.46447Z"/>
    <use class="symbol-cutout" href="#trendSymbol"/>
  </g>
</svg>
